<svg width="1200" height="1200" xmlns="http://www.w3.org/2000/svg" xmlns:xlink="http://www.w3.org/1999/xlink" version="1.1"><g transform="scale(11.368615523095897) translate(2.7771496242947027, 2.777069038814968)">                        <g fill="#ffd460"><g xmlns="http://www.w3.org/2000/svg"><path d="M69.766,37.275c-0.872,0.594-1.097,1.783-0.503,2.655c3.894,5.714,5.952,12.404,5.952,19.347   c0,18.969-15.432,34.401-34.401,34.401S6.413,78.246,6.413,59.277s15.432-34.401,34.401-34.401c6.795,0,13.367,1.978,19.003,5.72   c0.88,0.583,2.066,0.343,2.649-0.535c0.584-0.879,0.344-2.065-0.535-2.649c-6.265-4.16-13.567-6.359-21.117-6.359   c-21.076,0-38.223,17.147-38.223,38.223c0,21.076,17.147,38.223,38.223,38.223c21.076,0,38.223-17.146,38.223-38.223   c0-7.713-2.288-15.148-6.616-21.499C71.827,36.907,70.64,36.681,69.766,37.275z"/><path d="M53.804,38.624c0.491-0.934,0.132-2.09-0.803-2.58c-3.732-1.961-7.946-2.997-12.186-2.997   c-14.464,0-26.231,11.767-26.231,26.231S26.35,85.509,40.814,85.509s26.231-11.767,26.231-26.231c0-4.457-1.138-8.861-3.293-12.733   c-0.514-0.922-1.675-1.253-2.599-0.741c-0.922,0.513-1.254,1.676-0.741,2.598c1.839,3.305,2.811,7.066,2.811,10.875   c0,12.357-10.052,22.41-22.41,22.41c-12.357,0-22.41-10.052-22.41-22.41c0-12.357,10.053-22.409,22.41-22.409   c3.624,0,7.224,0.885,10.41,2.558C52.16,39.918,53.314,39.559,53.804,38.624z"/><path d="M40.814,49.046c0.464,0,0.928,0.031,1.379,0.092c1.046,0.14,2.008-0.592,2.15-1.637c0.141-1.046-0.592-2.008-1.637-2.15   c-0.621-0.084-1.257-0.126-1.892-0.126c-7.749,0-14.053,6.304-14.053,14.053s6.304,14.053,14.053,14.053   s14.053-6.304,14.053-14.053c0-0.891-0.084-1.782-0.249-2.649c-0.199-1.036-1.193-1.708-2.236-1.518   c-1.037,0.199-1.716,1.2-1.518,2.236c0.121,0.63,0.181,1.279,0.181,1.93c0,5.642-4.59,10.232-10.232,10.232   s-10.232-4.59-10.232-10.232C30.583,53.636,35.173,49.046,40.814,49.046z"/><path d="M97.262,15.007c-0.298-0.712-0.993-1.176-1.764-1.176c-0.003,0-0.005,0-0.007,0l-9.374,0.038l-0.038-9.465   c-0.003-0.772-0.47-1.466-1.183-1.759c-0.711-0.294-1.532-0.131-2.079,0.416L69.109,16.766c-0.358,0.358-0.56,0.844-0.56,1.351   v9.503L42.327,53.842c-0.482-0.134-0.988-0.211-1.513-0.211c-3.118,0-5.646,2.528-5.646,5.646c0,3.118,2.528,5.646,5.646,5.646   c3.118,0,5.646-2.528,5.646-5.646c0-0.67-0.123-1.311-0.337-1.907L72.25,31.243c1.054,0.021,2.44,0.048,3.829,0.072   c1.654,0.029,2.914,0.051,3.881,0.051c2.664,0,3.104-0.167,3.432-0.817l13.456-13.457C97.396,16.546,97.559,15.722,97.262,15.007z    M80.978,27.559c-1.547-0.003-5.412-0.071-8.607-0.135v-8.515l9.903-9.903l0.027,6.789c0.005,1.053,0.859,1.903,1.911,1.903   c0.003,0,0.005,0,0.007,0l6.646-0.027L80.978,27.559z"/></g></g>        </g></svg>